# xmcd
#
# Track frame offsets: 
#        150
#        871
#        41913
#        51985
#        73625
#        84452
#        93504
#        109978
#        111009
#        111687
#        112421
#        115273
#        116746
#        120752
#        137233
#        137866
#        158126
#        166980
#        172486
#        178843
#        191412
#        210949
#        211593
#        214896
#        231140
#        237811
#        246422
#        250167
#        251847
#        263361
#        284427
#        284727
#        285523
#        303419
#        310747
#        325298
#        334147
#        357121
#
# Disc length: 4784 seconds
#
# Revision: 0
# Processed by: cddbd v1.5.2PL0 Copyright (c) Steve Scherf et al.
# Submitted via: ExactAudioCopy v0.95b3
#
DISCID=4812ae26
DTITLE=The Beatles  - AB  Road - Complete Purple Chick Set v1.1 Jan.22
DTITLE=Various Artist - D1  FLAC
DYEAR=1900
DGENRE=
TTITLE0=Roll announcement
TTITLE1=Dialogue
TTITLE2=I Shall Be Released 22.01
TTITLE3=Improvisation 22.02
TTITLE4=Dialogue
TTITLE5=Drum solo 22.03
TTITLE6=Let It Down 22.04
TTITLE7=Piano
TTITLE8=Don't Let Me Down 21.73P
TTITLE9=Don't Let Me Down 21.73P
TTITLE10=Dialogue
TTITLE11=Dialogue-piano
TTITLE12=I've Got A Feeling 21.65P
TTITLE13=I've Got A Feeling 21.65P
TTITLE14=Don't Let Me Down 21.73P
TTITLE15=Don't Let Me Down 21.73P
TTITLE16=Unknown 22.05
TTITLE17=Some Other Guy 22.06
TTITLE18=Unknown 22.07
TTITLE19=Johnny B. Goode 22.08
TTITLE20=Don't Let Me Down 22.09
TTITLE21=Roll announcement
TTITLE22=Ambiance
TTITLE23=I Shall Be Released 22.10
TTITLE24=Improvisation 22.11
TTITLE25=Improvisation 22.12
TTITLE26=Dialogue
TTITLE27=Dig A Pony 22.13
TTITLE28=Don't Let Me Down 22.14
TTITLE29=Dig A Pony 22.15
TTITLE30=Dig A Pony 22.16
TTITLE31=Dialogue
TTITLE32=Dig A Pony 22.17
TTITLE33=Dig A Pony 22.18
TTITLE34=Dig A Pony 22.19
TTITLE35=Going Up The Country 22.20
TTITLE36=Dig A Pony 22.21
TTITLE37=Improvisation 22.22
EXTD=
EXTT0=
EXTT1=
EXTT2=
EXTT3=
EXTT4=
EXTT5=
EXTT6=
EXTT7=
EXTT8=
EXTT9=
EXTT10=
EXTT11=
EXTT12=
EXTT13=
EXTT14=
EXTT15=
EXTT16=
EXTT17=
EXTT18=
EXTT19=
EXTT20=
EXTT21=
EXTT22=
EXTT23=
EXTT24=
EXTT25=
EXTT26=
EXTT27=
EXTT28=
EXTT29=
EXTT30=
EXTT31=
EXTT32=
EXTT33=
EXTT34=
EXTT35=
EXTT36=
EXTT37=
PLAYORDER=
